<svg xmlns="http://www.w3.org/2000/svg" viewBox="0 0 1440 900" fill="none" preserveAspectRatio="xMidYMid slice">
  <!-- West 110 region — stylized elevation contours inspired by the Teton / Snake River Range -->
  <!-- Each group is a mountain "massif" with nested contour rings -->

  <!-- Main peak — Grand-style central massif, left-center -->
  <g stroke="white" stroke-width="0.8" fill="none" opacity="1">
    <path d="M 380,820 C 200,810 60,760 20,680 C -20,590 40,510 120,450 C 200,390 260,350 300,290 C 340,230 330,160 360,110 C 390,60 420,40 450,38 C 480,36 510,58 530,100 C 555,148 545,210 560,270 C 578,338 630,370 680,420 C 730,470 760,530 740,610 C 720,690 660,750 580,790 C 500,830 460,830 380,820 Z"/>
    <path d="M 390,790 C 230,778 100,730 65,660 C 28,585 80,515 155,460 C 220,412 278,372 315,315 C 348,262 340,195 368,148 C 394,104 422,85 450,83 C 478,81 505,100 524,138 C 547,182 538,242 552,298 C 568,363 616,393 663,440 C 710,488 738,543 720,615 C 702,685 644,742 568,780 C 492,818 450,802 390,790 Z"/>
    <path d="M 402,758 C 262,744 145,700 115,638 C 82,570 128,508 196,458 C 256,413 308,374 342,322 C 372,274 366,212 390,170 C 412,132 436,115 458,113 C 480,111 503,128 520,162 C 540,202 532,258 545,310 C 560,370 604,398 647,442 C 692,488 716,540 700,606 C 684,672 630,726 558,762 C 486,798 444,772 402,758 Z"/>
    <path d="M 418,722 C 298,706 196,666 170,610 C 142,550 182,497 244,452 C 298,412 346,376 376,330 C 402,288 398,232 418,196 C 436,163 456,148 474,146 C 492,144 511,159 526,190 C 543,226 536,276 548,324 C 562,378 600,404 638,444 C 676,486 698,534 684,594 C 670,654 620,704 552,736 C 484,768 438,738 418,722 Z"/>
    <path d="M 436,682 C 336,664 250,628 228,578 C 204,524 240,478 296,438 C 346,402 388,368 414,328 C 438,290 436,240 452,208 C 466,179 482,165 498,164 C 514,163 530,176 542,204 C 556,238 550,282 560,328 C 572,380 604,404 637,440 C 670,478 688,524 675,578 C 662,632 616,678 554,706 C 492,734 450,700 436,682 Z"/>
    <path d="M 452,644 C 372,626 300,594 282,550 C 262,502 294,462 344,428 C 390,396 428,366 452,330 C 474,297 474,252 486,224 C 498,198 510,186 524,185 C 538,184 550,196 560,220 C 572,250 566,290 576,332 C 588,378 616,400 644,432 C 672,466 686,508 674,556 C 662,604 622,644 564,668 C 506,692 468,662 452,644 Z"/>
    <path d="M 468,606 C 408,588 352,560 338,522 C 322,480 350,446 394,418 C 434,392 468,366 490,334 C 510,305 510,266 520,242 C 530,220 540,210 552,210 C 564,210 574,220 582,242 C 592,268 586,302 596,340 C 608,382 630,402 654,430 C 678,460 688,496 678,538 C 668,580 634,612 580,632 C 526,652 492,624 468,606 Z"/>
    <path d="M 486,566 C 446,548 406,524 396,492 C 384,456 408,428 446,406 C 482,385 512,362 530,336 C 548,312 548,278 556,258 C 564,240 572,232 582,232 C 592,232 600,240 606,260 C 614,284 608,314 618,348 C 630,386 648,404 668,428 C 688,454 694,484 686,520 C 678,556 650,580 602,596 C 554,612 520,584 486,566 Z"/>
    <path d="M 506,524 C 478,508 450,488 444,462 C 436,432 456,410 488,394 C 518,378 544,358 558,338 C 572,318 572,290 578,274 C 584,260 590,253 598,253 C 606,253 612,260 616,278 C 622,300 616,326 624,356 C 634,390 648,406 664,428 C 680,450 682,476 676,506 C 670,536 648,556 608,568 C 568,580 534,540 506,524 Z"/>
    <path d="M 528,482 C 512,468 496,452 494,432 C 490,408 508,392 532,382 C 556,371 576,355 586,340 C 596,325 596,304 600,292 C 604,282 608,276 614,276 C 620,276 624,282 626,298 C 630,318 624,340 630,364 C 638,392 648,408 660,426 C 672,446 672,468 666,492 C 660,516 642,530 616,538 C 590,546 560,510 528,482 Z"/>
  </g>

  <!-- Secondary peak — right side ridge -->
  <g stroke="white" stroke-width="0.7" fill="none" opacity="1">
    <path d="M 980,900 C 840,888 720,840 680,770 C 638,694 680,620 748,568 C 808,520 864,488 896,438 C 926,390 920,330 944,286 C 966,246 992,224 1018,222 C 1044,220 1068,242 1086,278 C 1108,320 1100,378 1116,432 C 1134,492 1176,522 1220,570 C 1266,620 1296,678 1280,754 C 1264,828 1200,878 1120,900 Z"/>
    <path d="M 988,868 C 864,854 756,808 720,745 C 682,676 720,608 784,560 C 840,516 892,484 922,438 C 950,394 944,338 966,298 C 986,261 1010,242 1034,240 C 1058,238 1080,258 1096,292 C 1116,332 1108,386 1122,438 C 1138,496 1176,524 1217,570 C 1258,618 1284,672 1269,742 C 1254,810 1194,856 1118,876 C 1042,896 994,880 988,868 Z"/>
    <path d="M 998,832 C 890,816 796,772 764,714 C 730,650 764,589 824,546 C 876,507 924,476 952,434 C 978,394 972,344 992,308 C 1010,275 1032,258 1054,256 C 1076,254 1096,272 1110,304 C 1128,342 1120,392 1134,442 C 1150,498 1184,524 1221,568 C 1258,614 1280,664 1266,728 C 1252,792 1196,834 1124,852 C 1052,870 1006,848 998,832 Z"/>
    <path d="M 1010,794 C 916,776 832,734 804,682 C 774,624 804,570 860,532 C 910,498 954,468 980,432 C 1004,398 998,352 1016,320 C 1032,291 1052,276 1072,274 C 1092,272 1110,288 1122,318 C 1138,354 1130,398 1144,446 C 1158,498 1188,522 1221,563 C 1254,606 1272,652 1260,710 C 1248,768 1196,808 1128,824 C 1060,840 1022,812 1010,794 Z"/>
    <path d="M 1024,752 C 944,732 872,694 848,648 C 822,598 848,550 898,518 C 944,488 984,460 1006,428 C 1026,398 1020,358 1036,330 C 1050,305 1068,292 1086,290 C 1104,288 1120,302 1130,330 C 1144,364 1136,402 1148,448 C 1162,498 1188,520 1218,558 C 1248,598 1262,640 1251,692 C 1240,744 1194,780 1132,793 C 1070,806 1044,772 1024,752 Z"/>
    <path d="M 1040,708 C 974,688 912,654 892,614 C 870,570 892,528 936,502 C 978,476 1012,452 1032,424 C 1050,398 1046,364 1058,340 C 1070,319 1084,308 1100,307 C 1116,306 1130,318 1138,344 C 1150,374 1142,408 1152,450 C 1164,496 1186,518 1212,552 C 1238,588 1249,626 1240,672 C 1231,718 1190,750 1134,761 C 1078,772 1058,728 1040,708 Z"/>
    <path d="M 1058,662 C 1006,642 956,612 940,578 C 922,540 940,506 978,484 C 1014,463 1044,442 1060,418 C 1076,395 1072,366 1082,346 C 1091,328 1103,318 1116,318 C 1129,318 1140,328 1147,352 C 1156,380 1148,410 1157,448 C 1167,490 1186,512 1207,543 C 1228,576 1237,610 1228,650 C 1219,690 1184,716 1134,725 C 1084,734 1072,682 1058,662 Z"/>
  </g>

  <!-- Far left ridge line — lower, distant range -->
  <g stroke="white" stroke-width="0.6" fill="none" opacity="1">
    <path d="M -40,700 C 60,680 140,640 180,590 C 222,536 210,478 228,430 C 246,382 272,354 296,352 C 320,350 340,374 352,410 C 366,452 358,500 370,542 C 384,590 416,614 440,652 C 464,692 462,734 436,764 C 410,794 364,810 300,818 C 236,826 160,820 80,800 C 0,780 -40,720 -40,700 Z"/>
    <path d="M -30,670 C 68,650 144,614 182,568 C 222,518 212,464 228,420 C 244,378 268,352 290,350 C 312,348 330,370 341,404 C 354,444 347,490 358,530 C 371,576 400,598 422,634 C 445,672 443,710 419,738 C 395,766 352,780 292,787 C 232,794 162,788 86,770 C 10,752 -30,690 -30,670 Z"/>
    <path d="M -20,638 C 76,618 148,585 184,544 C 222,500 213,450 228,410 C 242,372 264,348 284,347 C 304,346 320,366 330,398 C 342,436 336,478 346,516 C 358,560 384,582 404,616 C 424,652 422,686 400,712 C 378,738 338,750 282,756 C 226,762 162,756 90,740 C 18,724 -20,658 -20,638 Z"/>
    <path d="M -8,604 C 84,584 152,555 186,518 C 222,478 214,434 228,398 C 241,364 260,343 278,342 C 296,341 310,360 319,390 C 330,426 324,464 334,500 C 346,542 368,564 386,596 C 404,630 402,660 382,684 C 362,708 326,720 274,724 C 222,728 162,722 94,707 C 26,692 -8,624 -8,604 Z"/>
    <path d="M 6,568 C 92,550 158,525 190,492 C 224,456 216,416 228,384 C 240,354 256,336 272,335 C 288,334 300,352 308,380 C 318,414 312,450 321,484 C 332,524 351,545 368,574 C 385,606 382,634 364,656 C 346,678 314,688 266,691 C 218,694 162,688 98,674 C 34,660 6,588 6,568 Z"/>
  </g>

  <!-- Scattered smaller contour blobs — mid-ground terrain texture -->
  <g stroke="white" stroke-width="0.5" fill="none" opacity="1">
    <!-- Small knoll, bottom center -->
    <path d="M 680,880 C 640,872 608,850 600,820 C 592,790 612,768 648,758 C 684,748 720,752 744,768 C 768,784 776,810 764,836 C 752,862 720,888 680,880 Z"/>
    <path d="M 682,858 C 650,850 624,832 618,808 C 612,784 628,766 660,758 C 692,750 722,754 742,768 C 762,782 768,806 757,828 C 746,850 716,866 682,858 Z"/>
    <path d="M 684,836 C 660,828 641,814 637,796 C 633,778 646,764 672,758 C 698,752 722,756 738,768 C 754,780 758,800 748,818 C 738,836 708,844 684,836 Z"/>

    <!-- Small knoll far right -->
    <path d="M 1360,760 C 1320,748 1292,720 1288,688 C 1284,656 1306,632 1344,624 C 1382,616 1420,624 1440,644 C 1440,680 1440,720 1440,760 Z"/>
    <path d="M 1355,736 C 1322,726 1298,702 1295,676 C 1292,650 1311,630 1344,623 C 1370,617 1400,624 1420,640 C 1435,654 1440,674 1432,694 C 1420,718 1390,746 1355,736 Z"/>

    <!-- Ridge connecting peaks, upper area -->
    <path d="M 560,180 C 600,160 660,148 720,152 C 780,156 840,174 880,200 C 920,226 940,258 930,282 C 920,306 890,314 852,308 C 814,302 770,280 724,272 C 678,264 628,270 594,260 C 560,250 538,228 544,206 C 548,192 556,184 560,180 Z"/>
    <path d="M 566,204 C 602,186 658,175 714,179 C 770,183 826,200 862,222 C 898,244 914,272 906,292 C 898,312 872,318 838,313 C 804,308 764,288 722,281 C 680,274 634,280 604,271 C 574,262 556,242 560,222 C 562,212 566,206 566,204 Z"/>
  </g>
</svg>
