<?xml version="1.0" encoding="UTF-8"?>
<svg id="Layer_2" data-name="Layer 2" xmlns="http://www.w3.org/2000/svg" xmlns:xlink="http://www.w3.org/1999/xlink" viewBox="0 0 1017.09 417.48">
  <defs>
    <style>
      .cls-1 {
        fill: url(#linear-gradient-2);
      }

      .cls-2 {
        fill: url(#linear-gradient);
      }

      .cls-3 {
        fill: #06090a;
      }

      .cls-4 {
        fill: #020404;
      }

      .cls-5 {
        fill: #010304;
      }

      .cls-6 {
        fill: #040506;
      }
    </style>
    <linearGradient id="linear-gradient" x1="942.28" y1="741.23" x2="939.03" y2="1004.9" gradientTransform="translate(-270 -737)" gradientUnits="userSpaceOnUse">
      <stop offset="0" stop-color="#e44235"/>
      <stop offset=".15" stop-color="#e76b3c"/>
      <stop offset=".35" stop-color="#e35a37"/>
      <stop offset=".79" stop-color="#21130e"/>
      <stop offset="1" stop-color="#030506"/>
    </linearGradient>
    <linearGradient id="linear-gradient-2" x1="838.28" x2="835.03" y2="1004.9" xlink:href="#linear-gradient"/>
  </defs>
  <g id="Layer_1-2" data-name="Layer 1">
    <g>
      <g>
        <g>
          <path class="cls-2" d="M681.74,97.17c-.01-16.97.56-31.5-.31-48.23-13.25,10.77-27.66,18.27-43.48,23.47l-11.13-22.59c22.99-10.55,45.72-23.88,59.48-46.75l27.56.02v268.98s-32-.03-32-.03l-.12-174.87Z"/>
          <path class="cls-1" d="M577.74,97.17c-.01-16.97.56-31.5-.31-48.23-13.25,10.77-27.66,18.27-43.48,23.47l-11.13-22.59c22.99-10.55,45.72-23.88,59.48-46.75l27.56.02v268.98s-32-.03-32-.03l-.12-174.87Z"/>
        </g>
        <g>
          <path class="cls-6" d="M472.86,3.81c15.09-3.31,14.29,14.09,5.2,21.77-.51,1.42-1.29,2.62-2.34,3.59-8.56,1.4-17.53,4.37-24.22,10.48-7.67,7.01-12.93,16.06-16.33,25.83l-18.61,53.53-38.31,114.32c-8.11,24.2-24.83,40.9-50.68,33.98-10.08-2.7-20.33-10.83-24.96-22.5l-37.05-93.45c-6.35-16.01-11.75-31.41-18.97-46.91-1.71-3.66-3.73-6.86-6.68-9.49-3.62-3.23-8.18-2.79-11.4.78-3.59,3.97-5.48,8.42-7.41,13.69l-46.16,126.48c-3.53,9.68-8.04,18.74-15.57,25.59-10.79,9.83-25.47,11.86-40.36,7.55-11.09-3.21-22.03-12.24-26.99-25.21l-35.7-93.49L0,2.34c11.71-.31,22.95-.27,34.93.05l83.36,217.12c2.11,5.48,4.51,9.89,8.36,13.75,2.99,2.99,6.94,3.4,9.96.44s5.44-6.52,7.14-10.82l31.2-78.44,21.71-53.27c7.82-19.18,27.7-28.72,48.16-24.75,12.3,2.39,21.58,10.98,27.5,22.07,5.58,10.45,9.71,20.87,14.36,32.03l43.57,104.75c1.54,3.7,4.84,7.71,8.44,8.27,2.65-1.22,4.18-5.52,5.28-8.62l45.53-128.13c5.63-15.84,10.58-30.68,17.55-45.75,4.99-10.78,11.35-19.3,20.35-28.24,9.79-9.72,32.81-18.09,45.46-19.01Z"/>
          <path d="M475.72,28.74c-3.75-6.07,15.12-11.56,2.93-24.94-1.47-.8-7.76-.16-9.11-.06,5.26-.84,10.97-1.45,15.41-1.68l39.05-.14c-8.81,10.54-20.02,17.79-31.98,23.68-5.65,2.78-10.91,2.24-16.3,3.12Z"/>
        </g>
      </g>
      <g>
        <path class="cls-4" d="M1013.1,107.07c-.32,3.57-.58,7.1-.78,10.59-4.51,2.43-7.21-.56-8.12-8.98-.29-.6-.64-1.17-1.14-1.61-.77-.68-15.01-5.33-15.85-5.26-5.34,4.07-8.83,4.17-10.47.29l-2.85-2.49c-21.09-79.53-126.82-97.39-171.99-28.98l-3.2,1.52c-5.11,5.61-26.7,9.07-32.67,5.87-2.88-1.54-4.23-3.96-3.13-7.02,28.15-59.77,97.28-82.45,158.41-65.55,34.43,9.52,61.43,32.33,78.18,63.18,6.93,12.76,10.49,25.11,13.61,38.45Z"/>
        <path class="cls-5" d="M1013.02,178.19c-5.51,24.89-16.72,47.36-34.99,65.12-13.21,12.84-28.57,22.74-46.46,28.49-62.75,20.18-137.75-.29-166.82-61.9-.12-6.91,2.13-9.03,9.17-10.06,6.33-.93,14.82,1.63,7.87,8.78,5.55,3.2,12.35,4.07,20.38,2.61l3.95.13,4.62,6.03c40.47,47.25,118.19,43.71,151.7-9.43l3.48-5.9c.98-1.39,1.97,1.93,1.56,3.51,3.34-8.05,8.35-12.38,15.04-12.98,3.01-2.87,6.11-3.89,9.29-3.06,3.03,5.57,8.97,1.06,12.3-2.43-3.34-4.61-3.05-8.08,2.02-11.22,3.57-2.21,8.17-3.04,6.89,2.31Z"/>
        <path class="cls-3" d="M1013.1,107.07c5.59,23.89,5.07,47.88-.08,71.12-.07-.44.02-1.1-.23-1.51-1.12-1.79-10.18,1.76-8.83,6.06.66,2.1,2.88,3.26,1.83,5.48-1.44,3.03-9.88,6.89-12.07,5.95-1.19-.51-1.67-2.66-2.63-2.82-1.41-.23-3.06-.58-4.2.59-6.02,6.18-9.53-.5-14.34,8.99-1.05,2.07-3.07,3.56-4.37,5.59-.49.76-1.84-.31-2.16-.53l-.08-3.92c14.7-29.37,17.1-64.34,9.79-96.13l-1.82-6.34c2.48,2.21,8.3,3.08,10.57,1.27,3.77-3,7.33,1.32,10.75,1.69,5.14.55,10.49,1.47,11.53,7.77.44,2.68.57,6.4,3.97,7.17.69-10.18-2.64-.96,2.38-10.43Z"/>
        <g>
          <path class="cls-3" d="M801.91,70.62l-3.33,6.01c-20.7,42.33-17.78,94.98,7.54,134.73l.65,4.49c-6.06-7.25-15.67,2.94-27.91-6.27,1.44-2.96,3.41-3.84,3.94-6.97-4.93-.35-10.91-2-14.48.98-1.71,1.43-.64,5.9-3.57,6.31-22.35-37.89-22.2-101.19-1.85-138.92.82,1.95,3.29,5.89,5.88,5.81l15.29-.45c8.52-.25,12.4-7.77,17.83-5.74Z"/>
          <path class="cls-4" d="M788.53,85.87c-5.25,5.61-10.74-2.05-25.53-1.19,5.67-5.31,9.68,3.14,18.76-3.61,1.6-1.19,4.83-1.67,6.36-.37,1.33,1.12,1.32,4.21.42,5.17Z"/>
        </g>
      </g>
    </g>
    <g>
      <path d="M273.32,358.5h10.5l8.43,37.02c.5,1.99,1.04,5.31,1.49,8.3.62-3.53,1.45-7.76,1.91-9.63l8.8-35.69h10.54l8.76,35.69c.5,1.87,1.29,6.14,1.91,9.63.46-2.95,1.04-6.31,1.49-8.3l8.43-37.02h10.54l-14.69,57.9h-10.83l-8.8-36.27c-.46-1.99-1.45-6.76-2.12-10.25-.66,3.49-1.62,8.26-2.08,10.25l-8.8,36.27h-10.79l-14.69-57.9Z"/>
      <path d="M364.29,358.5h40.72v8.26h-30.63v15.69h28.72v8.26h-28.72v17.43h31.96v8.26h-42.04v-57.9Z"/>
      <path d="M422.77,396.6h9.96c.42,8.01,5.31,12.49,13.32,12.49,6.77,0,11.33-3.24,11.33-8.59,0-6.39-6.56-7.72-14.82-10-8.88-2.53-18.34-5.94-18.34-17.22s9.34-15.85,20.38-15.85c12.78,0,20.54,6.06,21.13,18.22h-9.96c-.46-7.01-4.81-9.84-11.37-9.84-5.15,0-10.09,1.87-10.09,7.14,0,5.6,5.64,7.06,13.07,9.09,12.62,3.4,20.09,7.47,20.09,18.01,0,12.24-10.33,17.43-21.33,17.43-14.57,0-23.03-7.93-23.37-20.88Z"/>
      <path d="M500.6,366.76h-18.22v-8.26h46.48v8.26h-18.18v49.64h-10.08v-49.64Z"/>
      <path d="M597.06,373.53c-3.61,4.77-10.29,7.76-18.51,7.76v-8.67c9.59,0,17.64-6.14,18.64-14.11h10v57.9h-10.13v-42.87Z"/>
      <path d="M658.73,373.53c-3.61,4.77-10.29,7.76-18.51,7.76v-8.67c9.59,0,17.64-6.14,18.63-14.11h10v57.9h-10.13v-42.87Z"/>
      <path d="M698.54,387.35c0-18.59,7.97-29.92,21.58-29.92s21.62,11.33,21.62,29.92-7.97,30.13-21.62,30.13-21.58-11.46-21.58-30.13ZM731.53,387.35c0-13.36-3.86-21.54-11.41-21.54s-11.33,8.18-11.33,21.54,3.86,21.75,11.33,21.75,11.41-8.34,11.41-21.75Z"/>
    </g>
  </g>
</svg>